<svg width="14" height="18" viewBox="0 0 14 18" fill="none" xmlns="http://www.w3.org/2000/svg">
<path fill-rule="evenodd" clip-rule="evenodd" d="M7 10C3.141 10 0 13.14 0 17C0 17.552 0.447 18 1 18C1.553 18 2 17.552 2 17C2 14.243 4.243 12 7 12C9.757 12 12 14.243 12 17C12 17.552 12.447 18 13 18C13.553 18 14 17.552 14 17C14 13.14 10.859 10 7 10Z" fill="white"/>
<path fill-rule="evenodd" clip-rule="evenodd" d="M7 2C8.103 2 9 2.897 9 4C9 5.103 8.103 6 7 6C5.897 6 5 5.103 5 4C5 2.897 5.897 2 7 2ZM7 8C9.206 8 11 6.206 11 4C11 1.794 9.206 0 7 0C4.794 0 3 1.794 3 4C3 6.206 4.794 8 7 8Z" fill="white"/>
</svg>
