<svg width="16" height="16" viewBox="0 0 16 16" fill="none" xmlns="http://www.w3.org/2000/svg">
<g id="Icon/Outline/checkmark">
<path id="Mask" fill-rule="evenodd" clip-rule="evenodd" d="M6.57555 12C6.39155 12 6.21555 11.924 6.08955 11.79L2.84755 8.33731C2.59488 8.06931 2.60888 7.64731 2.87688 7.39531C3.14555 7.14331 3.56755 7.15664 3.81888 7.42464L6.56888 10.352L12.1742 4.21731C12.4235 3.94464 12.8449 3.92664 13.1169 4.17464C13.3882 4.42264 13.4069 4.84464 13.1589 5.11597L7.06755 11.7826C6.94288 11.92 6.76555 11.9986 6.58021 12H6.57555Z" fill="#231F20"/>
<mask id="mask0" mask-type="alpha" maskUnits="userSpaceOnUse" x="2" y="4" width="12" height="8">
<path id="Mask_2" fill-rule="evenodd" clip-rule="evenodd" d="M6.57555 12C6.39155 12 6.21555 11.924 6.08955 11.79L2.84755 8.33731C2.59488 8.06931 2.60888 7.64731 2.87688 7.39531C3.14555 7.14331 3.56755 7.15664 3.81888 7.42464L6.56888 10.352L12.1742 4.21731C12.4235 3.94464 12.8449 3.92664 13.1169 4.17464C13.3882 4.42264 13.4069 4.84464 13.1589 5.11597L7.06755 11.7826C6.94288 11.92 6.76555 11.9986 6.58021 12H6.57555Z" fill="white"/>
</mask>
<g mask="url(#mask0)">
<g id="&#240;&#159;&#142;&#168; Color">
<rect id="Base" width="16" height="16" fill="#00C305"/>
</g>
</g>
</g>
</svg>
