<svg width="23" height="24" viewBox="0 0 23 24" fill="none" xmlns="http://www.w3.org/2000/svg">
<path fill-rule="evenodd" clip-rule="evenodd" d="M7 10C3.141 10 0 13.14 0 17C0 17.552 0.447 18 1 18C1.553 18 2 17.552 2 17C2 14.243 4.243 12 7 12C9.757 12 12 14.243 12 17C12 17.552 12.447 18 13 18C13.553 18 14 17.552 14 17C14 13.14 10.859 10 7 10Z" fill="#707C97"/>
<path fill-rule="evenodd" clip-rule="evenodd" d="M16 8C17.103 8 18 8.897 18 10C18 11.103 17.103 12 16 12C14.897 12 14 11.103 14 10C14 8.897 14.897 8 16 8M16 14C18.206 14 20 12.206 20 10C20 7.794 18.206 6 16 6C13.794 6 12 7.794 12 10C12 12.206 13.794 14 16 14" fill="#707C97"/>
<path fill-rule="evenodd" clip-rule="evenodd" d="M7 2C8.103 2 9 2.897 9 4C9 5.103 8.103 6 7 6C5.897 6 5 5.103 5 4C5 2.897 5.897 2 7 2M7 8C9.206 8 11 6.206 11 4C11 1.794 9.206 0 7 0C4.794 0 3 1.794 3 4C3 6.206 4.794 8 7 8" fill="#707C97"/>
<path fill-rule="evenodd" clip-rule="evenodd" d="M16 16C12.141 16 9 19.14 9 23C9 23.552 9.447 24 10 24C10.553 24 11 23.552 11 23C11 20.243 13.243 18 16 18C18.757 18 21 20.243 21 23C21 23.552 21.447 24 22 24C22.553 24 23 23.552 23 23C23 19.14 19.859 16 16 16" fill="#707C97"/>
</svg>
